Merlin is a British television series developed by Julian Jones, Jake Michie, Julian Murphy and Johnny Capps. It began its broadcast on the channel BBC One on 20 September 2008. The series is based on the Arthurian legends of the mythical wizard Merlin and his relationship with Prince Arthur, but differs from traditional versions of the legend in many ways, especially the characters. It is produced by independent production company Shine Limited. After a successful first series, American broadcaster NBC began airing the programme on 21 June 2009, but after a decline in viewership, was moved to the cable network Syfy, where it began broadcast of the second series on 2 April 2010. The second series began airing on 19 September 2009 on BBC One. On 5 September 2010, BFI Southbank in London previewed the first two episodes of the third series for its September Film Funday programme.

The concept for Merlin was influenced by the American show, Smallville, about the early years of Superman. After many failed attempts to bring the programme to life, development of the current Merlin began in late 2006, with physical production beginning in March 2008. The series received generally mixed reception when it began its broadcast. Critics were upset with the flat dialogue and the modern look to the series. One critic, in particular, called the whole concept "bland". The series première drew an overnight average of 6.65 million viewers in the 19:00 slot, a final consolidated figure of 7.15 million, despite being scheduled against popular ITV series The X Factor. The first series as a whole had an average of 6.32 million viewers, which is fewer than Doctor Who attracted during its first series, and slightly more than those received by Robin Hood. Merlin was also the fifth most watched programme on BBC iPlayer in 2008. The third series of Merlin began on 11 September 2010.


Format                           : AVI
Format/Info                      : Audio Video Interleave
File size                        : 349 MiB
Duration                         : 42mn 20s
Overall bit rate                 : 1 151 Kbps
Writing application              : VirtualDubMod 1.5.10.2 (build 2540/release)
Writing library                  : VirtualDubMod build 2540/release

Video
ID                               : 0
Format                           : MPEG-4 Visual
Format profile                   : Advanced Simple@L5
Format settings, BVOP            : Yes
Format settings, QPel            : No
Format settings, GMC             : No warppoints
Format settings, Matrix          : Default (H.263)
Codec ID                         : XVID
Codec ID/Hint                    : XviD
Duration                         : 42mn 20s
Bit rate                         : 1 010 Kbps
Width                            : 624 pixels
Height                           : 352 pixels
Display aspect ratio             : 16:9
Frame rate                       : 25.000 fps
Resolution                       : 8 bits
Colorimetry                      : 4:2:0
Scan type                        : Progressive
Bits/(Pixel*Frame)               : 0.184
Stream size                      : 306 MiB (88%)
Writing library                  : XviD 1.2.1 (UTC 2008-12-04)

Audio
ID                               : 1
Format                           : MPEG Audio
Format version                   : Version 1
Format profile                   : Layer 3
Mode                             : Joint stereo
Format_Settings_ModeExtension    : MS Stereo
Codec ID                         : 55
Codec ID/Hint                    : MP3
Duration                         : 42mn 20s
Bit rate mode                    : Variable
Bit rate                         : 128 Kbps
Channel(s)                       : 2 channels
Sampling rate                    : 48.0 KHz
Stream size                      : 38.9 MiB (11%)
Alignment                        : Aligned on interleaves
Interleave, duration             : 24 ms (0.60 video frame)
Interleave, preload duration     : 460 ms
Writing library                  : LAME3.90.
Encoding settings                : -m j -V 4 -q 2 -lowpass 17.6 --abr 128

